# xmcd
#
# Track frame offsets: 
#        150
#        12969
#        30182
#        47417
#        68678
#        83686
#        100242
#        119511
#        135200
#        150164
#        171219
#        186880
#
# Disc length: 2745 seconds
#
# Revision: 0
# Processed by: cddbd v1.5.2PL0 Copyright (c) Steve Scherf et al.
# Submitted via: ExactAudioCopy v1.3
#
DISCID=800ab70c
DTITLE=Rick Vito - Soulshaker
DYEAR=2019
DGENRE=Blues
TTITLE0=She's Just Too Fine
TTITLE1=I've Got A Secret
TTITLE2=I Do Believe
TTITLE3=World On Fire
TTITLE4=Doggin' Around
TTITLE5=Dancin' Little Sister
TTITLE6=The Ball And Chain
TTITLE7=I'm Going To Heaven
TTITLE8=Soul Shadows
TTITLE9=Walking Shoes
TTITLE10=Promise Land
TTITLE11=A Change Is Gonna Come
EXTD=
EXTT0=
EXTT1=
EXTT2=
EXTT3=
EXTT4=
EXTT5=
EXTT6=
EXTT7=
EXTT8=
EXTT9=
EXTT10=
EXTT11=
PLAYORDER=
